<?xml version="1.0" standalone="no"?>
<!DOCTYPE svg PUBLIC "-//W3C//DTD SVG 20010904//EN"
 "http://www.w3.org/TR/2001/REC-SVG-20010904/DTD/svg10.dtd">
<svg version="1.0" xmlns="http://www.w3.org/2000/svg"
 width="1024.000000pt" height="1024.000000pt" viewBox="0 0 1024.000000 1024.000000"
 preserveAspectRatio="xMidYMid meet">

<g transform="translate(0.000000,1024.000000) scale(0.100000,-0.100000)"
fill="#000000" stroke="none">
<path d="M1788 6091 c-67 -43 -566 -544 -614 -616 l-39 -60 -3 -530 c-2 -363
0 -542 8 -568 21 -71 -1 -68 566 -65 505 3 509 3 551 25 58 31 586 553 634
627 l39 59 0 548 c0 301 -3 555 -6 564 -17 44 -35 45 -577 45 l-513 0 -46 -29z"/>
<path d="M7410 5702 l0 -272 -57 47 c-92 74 -151 96 -267 101 -58 3 -123 -1
-155 -8 -169 -37 -297 -172 -346 -365 -25 -96 -25 -266 -1 -362 56 -223 249
-375 475 -374 131 1 225 37 300 115 19 20 39 36 43 36 4 0 8 -29 8 -64 l0 -65
126 -3 c78 -2 128 1 130 7 2 6 3 340 2 743 l-3 733 -128 2 -127 2 0 -273z
m-175 -346 c80 -37 144 -120 169 -221 5 -16 8 -69 7 -116 -1 -108 -27 -184
-84 -247 -55 -59 -108 -84 -188 -90 -124 -9 -222 47 -276 156 -26 54 -28 65
-28 187 0 127 1 132 33 197 54 110 128 156 252 157 48 1 78 -5 115 -23z"/>
<path d="M7866 5948 c4 -7 76 -118 158 -245 83 -128 180 -278 216 -334 36 -55
69 -106 74 -113 6 -9 -28 -65 -106 -177 -109 -156 -377 -550 -392 -576 -6 -10
26 -13 144 -13 l151 0 132 203 c73 111 151 230 173 264 l40 61 174 -263 175
-264 158 0 c86 -1 157 1 157 4 0 3 -42 65 -93 138 -95 133 -247 360 -350 519
l-56 86 55 79 c58 83 370 556 403 611 l20 32 -149 0 -150 0 -24 -37 c-19 -31
-112 -181 -275 -445 l-16 -26 -156 251 -156 252 -157 3 c-126 2 -156 0 -150
-10z"/>
<path d="M3450 5835 l0 -115 220 0 220 0 0 -615 0 -615 135 0 135 0 0 615 0
615 215 0 215 0 0 115 0 115 -570 0 -570 0 0 -115z"/>
<path d="M5812 5579 c-192 -25 -337 -133 -366 -275 l-7 -32 113 -21 c62 -12
116 -21 119 -21 4 0 9 13 12 29 9 43 61 97 112 117 60 23 197 16 245 -12 53
-31 74 -66 78 -137 l4 -63 -148 -12 c-332 -27 -472 -83 -542 -216 -24 -45 -27
-62 -27 -151 0 -85 3 -107 23 -145 34 -65 76 -104 146 -137 57 -26 69 -28 196
-28 155 0 206 14 310 84 l60 39 0 -54 0 -54 125 0 125 0 0 383 c0 421 -3 449
-60 537 -61 95 -166 150 -323 170 -90 11 -104 11 -195 -1z m308 -675 l0 -85
-53 -53 c-67 -67 -139 -96 -238 -96 -44 0 -81 6 -100 15 -41 22 -69 71 -69
124 0 120 114 175 373 180 l87 1 0 -86z"/>
<path d="M5080 5548 c-38 -15 -74 -40 -117 -84 l-63 -62 0 79 0 79 -125 0
-125 0 0 -535 0 -535 129 0 130 0 3 318 c3 309 4 318 27 370 31 69 106 137
174 157 28 8 86 15 129 15 l79 0 -3 108 -3 107 -90 2 c-72 2 -101 -2 -145 -19z"/>
</g>
</svg>
